<?xml version="1.0" encoding="UTF-8" standalone="no"?>
<!DOCTYPE svg PUBLIC "-//W3C//DTD SVG 1.1//EN" "http://www.w3.org/Graphics/SVG/1.1/DTD/svg11.dtd">
<!-- Generated by graphviz version 2.40.1 (20161225.0304)
 -->
<!-- Title: G Pages: 1 -->
<svg width="393pt" height="118pt" viewBox="0.00 0.00 393.10 117.93" xmlns="http://www.w3.org/2000/svg" xmlns:xlink="http://www.w3.org/1999/xlink">
<g id="graph0" class="graph" transform="scale(1 1) rotate(0) translate(4 113.9348)">
<title>G</title>
<polygon fill="#ffffff" stroke="transparent" points="-4,4 -4,-113.9348 389.0975,-113.9348 389.0975,4 -4,4"/>
<!-- B -->
<g id="node1" class="node">
<title>B</title>
<polygon fill="none" stroke="#000000" points="236.0842,-109.9875 188.8736,-109.9875 188.8736,-62.7769 236.0842,-62.7769 236.0842,-109.9875"/>
<text text-anchor="middle" x="212.4789" y="-82.1822" font-family="Times,serif" font-size="14.00" fill="#000000">$then</text>
</g>
<!-- D -->
<g id="node5" class="node">
<title>D</title>
<path fill="none" stroke="#000000" d="M334.9193,-78.5245C334.9193,-78.5245 310.6347,-78.5245 310.6347,-78.5245 304.6347,-78.5245 298.6347,-72.5245 298.6347,-66.5245 298.6347,-66.5245 298.6347,-42.2399 298.6347,-42.2399 298.6347,-36.2399 304.6347,-30.2399 310.6347,-30.2399 310.6347,-30.2399 334.9193,-30.2399 334.9193,-30.2399 340.9193,-30.2399 346.9193,-36.2399 346.9193,-42.2399 346.9193,-42.2399 346.9193,-66.5245 346.9193,-66.5245 346.9193,-72.5245 340.9193,-78.5245 334.9193,-78.5245"/>
<text text-anchor="middle" x="322.777" y="-50.1822" font-family="Times,serif" font-size="14.00" fill="#000000">$after</text>
</g>
<!-- B&#45;&gt;D -->
<g id="edge3" class="edge">
<title>B:e-&gt;D</title>
<path fill="none" stroke="#000000" d="M236.0315,-86.3822C254.3759,-86.3822 273.629,-80.0051 289.3236,-72.9446"/>
<polygon fill="#000000" stroke="#000000" points="291.0841,-75.9824 298.596,-68.511 288.0644,-69.6672 291.0841,-75.9824"/>
<text text-anchor="middle" x="267.244" y="-88.5822" font-family="Times,serif" font-size="14.00" fill="#000000">true</text>
</g>
<!-- C -->
<g id="node2" class="node">
<title>C</title>
<polygon fill="none" stroke="#000000" points="234.7439,-44.6472 190.2139,-44.6472 190.2139,-.1172 234.7439,-.1172 234.7439,-44.6472"/>
<text text-anchor="middle" x="212.4789" y="-18.1822" font-family="Times,serif" font-size="14.00" fill="#000000">$else</text>
</g>
<!-- C&#45;&gt;D -->
<g id="edge5" class="edge">
<title>C:e-&gt;D</title>
<path fill="none" stroke="#000000" d="M235.4789,-22.3822C253.9262,-22.3822 273.3004,-28.7593 289.0977,-35.8198"/>
<polygon fill="#000000" stroke="#000000" points="287.8967,-39.1241 298.4312,-40.2534 290.9002,-32.8012 287.8967,-39.1241"/>
<text text-anchor="middle" x="267.244" y="-36.5822" font-family="Times,serif" font-size="14.00" fill="#000000">false</text>
</g>
<!-- S -->
<g id="node3" class="node">
<title>S</title>
</g>
<!-- A -->
<g id="node4" class="node">
<title>A</title>
<polygon fill="none" stroke="#000000" points="82.2506,-90.3822 38.248,-54.3822 82.2506,-18.3822 126.2533,-54.3822 82.2506,-90.3822"/>
<text text-anchor="middle" x="82.2506" y="-50.1822" font-family="Times,serif" font-size="14.00" fill="#000000">$before</text>
</g>
<!-- S&#45;&gt;A -->
<g id="edge1" class="edge">
<title>S-&gt;A</title>
<path fill="none" stroke="#000000" d="M1.022,-54.3822C3.4927,-54.3822 14.4386,-54.3822 27.5335,-54.3822"/>
<polygon fill="#000000" stroke="#000000" points="27.8615,-57.8823 37.8615,-54.3822 27.8614,-50.8823 27.8615,-57.8823"/>
</g>
<!-- A&#45;&gt;B -->
<g id="edge2" class="edge">
<title>A-&gt;B:w</title>
<path fill="none" stroke="#000000" d="M110.5386,-67.7677C129.0947,-75.4746 154.376,-84.0135 178.8677,-85.9685"/>
<polygon fill="#000000" stroke="#000000" points="178.7909,-89.4682 188.9263,-86.3822 179.0786,-82.4741 178.7909,-89.4682"/>
<text text-anchor="middle" x="157.7138" y="-89.5822" font-family="Times,serif" font-size="14.00" fill="#000000">true</text>
</g>
<!-- A&#45;&gt;C -->
<g id="edge4" class="edge">
<title>A-&gt;C:w</title>
<path fill="none" stroke="#000000" d="M110.245,-41.1818C128.9221,-33.4345 154.5145,-24.7833 179.3002,-22.8016"/>
<polygon fill="#000000" stroke="#000000" points="179.6315,-26.2911 189.4789,-22.3822 179.3432,-19.297 179.6315,-26.2911"/>
<text text-anchor="middle" x="157.7138" y="-33.5822" font-family="Times,serif" font-size="14.00" fill="#000000">false</text>
</g>
<!-- E -->
<g id="node6" class="node">
<title>E</title>
</g>
<!-- D&#45;&gt;E -->
<g id="edge6" class="edge">
<title>D-&gt;E</title>
<path fill="none" stroke="#000000" d="M347.2101,-54.3822C356.5082,-54.3822 366.6249,-54.3822 373.9872,-54.3822"/>
<polygon fill="#000000" stroke="#000000" points="374.0863,-57.8823 384.0862,-54.3822 374.0862,-50.8823 374.0863,-57.8823"/>
</g>
</g>
</svg>
