<?xml version="1.0" encoding="UTF-8" standalone="no"?>
<!DOCTYPE svg PUBLIC "-//W3C//DTD SVG 1.1//EN" "http://www.w3.org/Graphics/SVG/1.1/DTD/svg11.dtd">
<!-- Generated by graphviz version 2.40.1 (20161225.0304)
 -->
<!-- Title: G Pages: 1 -->
<svg width="422pt" height="122pt" viewBox="0.00 0.00 421.80 121.70" xmlns="http://www.w3.org/2000/svg" xmlns:xlink="http://www.w3.org/1999/xlink">
<g id="graph0" class="graph" transform="scale(1 1) rotate(0) translate(4 117.6953)">
<title>G</title>
<polygon fill="#ffffff" stroke="transparent" points="-4,4 -4,-117.6953 417.8029,-117.6953 417.8029,4 -4,4"/>
<!-- B -->
<g id="node1" class="node">
<title>B</title>
<polygon fill="none" stroke="#000000" points="218.8505,-113.4479 171.8453,-113.4479 171.8453,-66.4427 218.8505,-66.4427 218.8505,-113.4479"/>
<text text-anchor="middle" x="195.3479" y="-85.7453" font-family="Times,serif" font-size="14.00" fill="#000000"> $do  </text>
</g>
<!-- D -->
<g id="node5" class="node">
<title>D</title>
<polygon fill="none" stroke="#000000" points="318.3777,-92.9453 281.558,-56.9453 318.3777,-20.9453 355.1973,-56.9453 318.3777,-92.9453"/>
<text text-anchor="middle" x="318.3777" y="-52.7453" font-family="Times,serif" font-size="14.00" fill="#000000">$until</text>
</g>
<!-- B&#45;&gt;D -->
<g id="edge3" class="edge">
<title>B:e-&gt;D</title>
<path fill="none" stroke="#000000" d="M219.2932,-89.9453C241.9897,-89.9453 266.1813,-82.0549 284.9791,-73.9905"/>
<polygon fill="#000000" stroke="#000000" points="286.6021,-77.0982 294.2809,-69.7985 283.7259,-70.7163 286.6021,-77.0982"/>
</g>
<!-- C -->
<g id="node2" class="node">
<title>C</title>
<polygon fill="none" stroke="#000000" points="219.2386,-47.836 171.4572,-47.836 171.4572,-.0546 219.2386,-.0546 219.2386,-47.836"/>
<text text-anchor="middle" x="195.3479" y="-19.7453" font-family="Times,serif" font-size="14.00" fill="#000000">$loop</text>
</g>
<!-- C&#45;&gt;D -->
<g id="edge5" class="edge">
<title>C:e-&gt;D</title>
<path fill="none" stroke="#000000" d="M229.3628,-24.4309C252.9825,-26.6403 277.1131,-35.9845 294.2809,-44.0921"/>
<polygon fill="#000000" stroke="#000000" points="229.4502,-20.9312 219.2932,-23.9453 229.113,-27.9231 229.4502,-20.9312"/>
<text text-anchor="middle" x="250.5057" y="-36.1453" font-family="Times,serif" font-size="14.00" fill="#000000">false</text>
</g>
<!-- S -->
<g id="node3" class="node">
<title>S</title>
</g>
<!-- A -->
<g id="node4" class="node">
<title>A</title>
<path fill="none" stroke="#000000" d="M97.0839,-82.1575C97.0839,-82.1575 70.6595,-82.1575 70.6595,-82.1575 64.6595,-82.1575 58.6595,-76.1575 58.6595,-70.1575 58.6595,-70.1575 58.6595,-43.7331 58.6595,-43.7331 58.6595,-37.7331 64.6595,-31.7331 70.6595,-31.7331 70.6595,-31.7331 97.0839,-31.7331 97.0839,-31.7331 103.0839,-31.7331 109.0839,-37.7331 109.0839,-43.7331 109.0839,-43.7331 109.0839,-70.1575 109.0839,-70.1575 109.0839,-76.1575 103.0839,-82.1575 97.0839,-82.1575"/>
<text text-anchor="middle" x="83.8717" y="-52.7453" font-family="Times,serif" font-size="14.00" fill="#000000">$from</text>
</g>
<!-- S&#45;&gt;A -->
<g id="edge1" class="edge">
<title>S-&gt;A</title>
<path fill="none" stroke="#000000" d="M1.0324,-56.9453C4.7814,-56.9453 27.6645,-56.9453 48.4315,-56.9453"/>
<polygon fill="#000000" stroke="#000000" points="48.6737,-60.4454 58.6737,-56.9453 48.6736,-53.4454 48.6737,-60.4454"/>
<text text-anchor="middle" x="29.8829" y="-61.1453" font-family="Times,serif" font-size="14.00" fill="#000000">true</text>
</g>
<!-- A&#45;&gt;B -->
<g id="edge2" class="edge">
<title>A-&gt;B:w</title>
<path fill="none" stroke="#000000" d="M108.9802,-71.9004C123.4008,-79.3017 142.3558,-87.1211 161.2488,-89.3318"/>
<polygon fill="#000000" stroke="#000000" points="161.2097,-92.8358 171.4026,-89.9453 161.6319,-85.8485 161.2097,-92.8358"/>
</g>
<!-- A&#45;&gt;C -->
<g id="edge4" class="edge">
<title>A-&gt;C:w</title>
<path fill="none" stroke="#000000" d="M118.2731,-37.4867C133.9733,-30.3324 153.1118,-23.9453 171.4026,-23.9453"/>
<polygon fill="#000000" stroke="#000000" points="116.4528,-34.4795 108.9802,-41.9902 119.5055,-40.7787 116.4528,-34.4795"/>
<text text-anchor="middle" x="140.1901" y="-38.1453" font-family="Times,serif" font-size="14.00" fill="#000000">false</text>
</g>
<!-- E -->
<g id="node6" class="node">
<title>E</title>
</g>
<!-- D&#45;&gt;E -->
<g id="edge6" class="edge">
<title>D-&gt;E</title>
<path fill="none" stroke="#000000" d="M355.0783,-56.9453C371.9102,-56.9453 390.6483,-56.9453 402.207,-56.9453"/>
<polygon fill="#000000" stroke="#000000" points="402.502,-60.4454 412.502,-56.9453 402.5019,-53.4454 402.502,-60.4454"/>
<text text-anchor="middle" x="383.92" y="-61.1453" font-family="Times,serif" font-size="14.00" fill="#000000">true</text>
</g>
</g>
</svg>